Dip1990


      Batman Begins [2005] [Dual-Audio] [English+Hindi]_Dip1990

General
Complete name                    : Batman Begins [2005] [Dual-Audio] [English+Hindi]_Dip1990.mkv
IMDB Rating                      : 8.3/10   268,884 votes
Format                           : Matroska
File size                        : 2.25 GiB
Duration                         : 2h 20mn
Overall bit rate                 : 2 305 Kbps
Encoded date                     : UTC 2010-08-28 18:53:32
Writing application              : mkvmerge v4.2.0 (\\\\\\\'No Talking\\\\\\\') built on Jul 28 2010 18:38:23
Writing library                  : libebml v1.0.0 + libmatroska v1.0.0

Video
ID                               : 1
Format                           : AVC
Format/Info                      : Advanced Video Codec
Format profile                   : High@L4.1
Format settings, CABAC           : Yes
Format settings, ReFrames        : 4 frames
Muxing mode                      : Container profile=Unknown@4.1
Codec ID                         : V_MPEG4/ISO/AVC
Duration                         : 2h 20mn
Bit rate                         : 1 986 Kbps
Width                            : 960 pixels
Height                           : 544 pixels
Display aspect ratio             : 2.40:1
Original display aspect ratio    : 16:9
Frame rate                       : 23.976 fps
Color space                      : YUV
Chroma subsampling               : 4:2:0
Bit depth                        : 8 bits
Scan type                        : Progressive
Bits/(Pixel*Frame)               : 0.159
Stream size                      : 1.90 GiB (84%)
Title                            : Batman Begins
Writing library                  : x264 core 65 r1046M 71d34b4
Encoding settings                : cabac=1 / ref=4 / deblock=1:-3:-3 / analyse=0x3:0x113 / me=umh / subme=9 / psy_rd=1.0:0.0 / mixed_ref=1 / me_range=16 / chroma_me=1 / trellis=2 / 8x8dct=1 / cqm=2 / deadzone=21,11 / chroma_qp_offset=-2 / threads=3 / nr=0 / decimate=0 / mbaff=0 / bframes=3 / b_pyramid=1 / b_adapt=1 / b_bias=0 / direct=3 / wpredb=1 / keyint=250 / keyint_min=25 / scenecut=40(pre) / rc=2pass / bitrate=1986 / ratetol=2.0 / qcomp=0.60 / qpmin=10 / qpmax=51 / qpstep=4 / cplxblur=20.0 / qblur=0.5 / vbv_maxrate=38000 / vbv_bufsize=30000 / ip_ratio=1.40 / pb_ratio=1.30 / aq=1:1.00

Audio #1
ID                               : 2
Format                           : MPEG Audio
Format version                   : Version 1
Format profile                   : Layer 3
Mode                             : Joint stereo
Mode extension                   : MS Stereo
Codec ID                         : A_MPEG/L3
Codec ID/Hint                    : MP3
Duration                         : 2h 20mn
Bit rate mode                    : Variable
Bit rate                         : 96.4 Kbps
Minimum bit rate                 : 32.0 Kbps
Channel(s)                       : 2 channels
Sampling rate                    : 44.1 KHz
Stream size                      : 96.5 MiB (4%)
Title                            : Batman Begins - English
Writing library                  : LAME3.98r
Encoding settings                : -m j -V 6 -q 3 -lowpass 15.6 --vbr-old -b 32

Audio #2
ID                               : 3
Format                           : MPEG Audio
Format version                   : Version 1
Format profile                   : Layer 3
Mode                             : Joint stereo
Mode extension                   : MS Stereo
Codec ID                         : A_MPEG/L3
Codec ID/Hint                    : MP3
Duration                         : 2h 20mn
Bit rate mode                    : Variable
Bit rate                         : 220 Kbps
Minimum bit rate                 : 32.0 Kbps
Channel(s)                       : 2 channels
Sampling rate                    : 48.0 KHz
Stream size                      : 221 MiB (10%)
Title                            : Batman Begins - Hindi
Writing library                  : LAME3.98r
Encoding settings                : -m j -V 0 -q 3 -lowpass 19.5 --vbr-old -b 32
Language                         : Hindi

Screens:
  
http://img687.imageshack.us/img687/9251/vlcsnap2010090219h22m15.png  
http://img841.imageshack.us/img841/9503/vlcsnap2010090219h22m26.png  
http://img716.imageshack.us/img716/4259/vlcsnap2010090219h22m36.png  
http://img339.imageshack.us/img339/8130/vlcsnap2010090219h22m43.png  
http://img255.imageshack.us/img255/4729/vlcsnap2010090219h24m59.png  
http://img816.imageshack.us/img816/3888/vlcsnap2010090219h25m09.png  
http://img525.imageshack.us/img525/4337/vlcsnap2010090219h25m12.png  
http://img52.imageshack.us/img52/2146/vlcsnap2010090219h25m30.png